<mxfile host="app.diagrams.net" agent="Mozilla/5.0 (X11; Linux x86_64) AppleWebKit/537.36 (KHTML, like Gecko) Chrome/127.0.0.0 Safari/537.36" version="24.7.6">
  <diagram name="Страница — 1" id="9PS2vfTPNmlvU0izrsLi">
    <mxGraphModel dx="1726" dy="1179" grid="1" gridSize="10" guides="1" tooltips="1" connect="1" arrows="1" fold="1" page="0" pageScale="1" pageWidth="827" pageHeight="1169" math="0" shadow="0">
      <root>
        <mxCell id="0" />
        <mxCell id="1" parent="0" />
        <mxCell id="f2aHSnmQVp273GiSmWft-42" style="edgeStyle=orthogonalEdgeStyle;shape=connector;rounded=0;orthogonalLoop=1;jettySize=auto;html=1;exitX=1;exitY=0.5;exitDx=0;exitDy=0;entryX=0;entryY=0.5;entryDx=0;entryDy=0;strokeColor=default;align=center;verticalAlign=middle;fontFamily=Helvetica;fontSize=11;fontColor=default;labelBackgroundColor=default;endArrow=none;endFill=0;" parent="1" source="f2aHSnmQVp273GiSmWft-1" target="f2aHSnmQVp273GiSmWft-37" edge="1">
          <mxGeometry relative="1" as="geometry" />
        </mxCell>
        <mxCell id="veKBCSQcN8gknb0WO686-18" style="edgeStyle=orthogonalEdgeStyle;shape=connector;rounded=0;orthogonalLoop=1;jettySize=auto;html=1;exitX=0;exitY=0.5;exitDx=0;exitDy=0;entryX=0;entryY=0.5;entryDx=0;entryDy=0;strokeColor=default;align=center;verticalAlign=middle;fontFamily=Helvetica;fontSize=11;fontColor=default;labelBackgroundColor=default;endArrow=none;endFill=0;" edge="1" parent="1" source="f2aHSnmQVp273GiSmWft-1" target="veKBCSQcN8gknb0WO686-23">
          <mxGeometry relative="1" as="geometry" />
        </mxCell>
        <mxCell id="f2aHSnmQVp273GiSmWft-1" value="Товар" style="whiteSpace=wrap;html=1;align=center;" parent="1" vertex="1">
          <mxGeometry x="-320" y="130" width="100" height="40" as="geometry" />
        </mxCell>
        <mxCell id="f2aHSnmQVp273GiSmWft-11" style="edgeStyle=orthogonalEdgeStyle;rounded=0;orthogonalLoop=1;jettySize=auto;html=1;exitX=0;exitY=0.5;exitDx=0;exitDy=0;entryX=0;entryY=0.5;entryDx=0;entryDy=0;endArrow=none;endFill=0;" parent="1" source="f2aHSnmQVp273GiSmWft-2" target="f2aHSnmQVp273GiSmWft-10" edge="1">
          <mxGeometry relative="1" as="geometry" />
        </mxCell>
        <mxCell id="veKBCSQcN8gknb0WO686-63" style="edgeStyle=orthogonalEdgeStyle;shape=connector;rounded=0;orthogonalLoop=1;jettySize=auto;html=1;exitX=0.5;exitY=0;exitDx=0;exitDy=0;entryX=0.5;entryY=1;entryDx=0;entryDy=0;strokeColor=default;align=center;verticalAlign=middle;fontFamily=Helvetica;fontSize=11;fontColor=default;labelBackgroundColor=default;endArrow=ERmany;endFill=0;" edge="1" parent="1" source="veKBCSQcN8gknb0WO686-64" target="veKBCSQcN8gknb0WO686-48">
          <mxGeometry relative="1" as="geometry" />
        </mxCell>
        <mxCell id="f2aHSnmQVp273GiSmWft-2" value="Пользователь" style="whiteSpace=wrap;html=1;align=center;" parent="1" vertex="1">
          <mxGeometry x="140" y="400" width="100" height="40" as="geometry" />
        </mxCell>
        <mxCell id="f2aHSnmQVp273GiSmWft-30" style="edgeStyle=orthogonalEdgeStyle;shape=connector;rounded=0;orthogonalLoop=1;jettySize=auto;html=1;exitX=0;exitY=0.5;exitDx=0;exitDy=0;entryX=0;entryY=0.5;entryDx=0;entryDy=0;strokeColor=default;align=center;verticalAlign=middle;fontFamily=Helvetica;fontSize=11;fontColor=default;labelBackgroundColor=default;endArrow=none;endFill=0;" parent="1" source="f2aHSnmQVp273GiSmWft-3" target="f2aHSnmQVp273GiSmWft-29" edge="1">
          <mxGeometry relative="1" as="geometry" />
        </mxCell>
        <mxCell id="f2aHSnmQVp273GiSmWft-3" value="Арендодатель" style="whiteSpace=wrap;html=1;align=center;" parent="1" vertex="1">
          <mxGeometry x="-20" y="400" width="100" height="40" as="geometry" />
        </mxCell>
        <mxCell id="f2aHSnmQVp273GiSmWft-40" style="edgeStyle=orthogonalEdgeStyle;shape=connector;rounded=0;orthogonalLoop=1;jettySize=auto;html=1;exitX=1;exitY=0.5;exitDx=0;exitDy=0;entryX=0;entryY=0.75;entryDx=0;entryDy=0;strokeColor=default;align=center;verticalAlign=middle;fontFamily=Helvetica;fontSize=11;fontColor=default;labelBackgroundColor=default;endArrow=none;endFill=0;" parent="1" source="f2aHSnmQVp273GiSmWft-39" target="veKBCSQcN8gknb0WO686-6" edge="1">
          <mxGeometry relative="1" as="geometry">
            <mxPoint x="-20" y="240" as="targetPoint" />
          </mxGeometry>
        </mxCell>
        <mxCell id="f2aHSnmQVp273GiSmWft-43" style="edgeStyle=orthogonalEdgeStyle;shape=connector;rounded=0;orthogonalLoop=1;jettySize=auto;html=1;exitX=1;exitY=0.75;exitDx=0;exitDy=0;entryX=0;entryY=0.5;entryDx=0;entryDy=0;strokeColor=default;align=center;verticalAlign=middle;fontFamily=Helvetica;fontSize=11;fontColor=default;labelBackgroundColor=default;endArrow=none;endFill=0;" parent="1" source="f2aHSnmQVp273GiSmWft-5" target="f2aHSnmQVp273GiSmWft-44" edge="1">
          <mxGeometry relative="1" as="geometry">
            <Array as="points">
              <mxPoint x="-200" y="260" />
              <mxPoint x="-200" y="330" />
            </Array>
            <mxPoint x="-130" y="400" as="targetPoint" />
          </mxGeometry>
        </mxCell>
        <mxCell id="veKBCSQcN8gknb0WO686-14" style="edgeStyle=orthogonalEdgeStyle;rounded=0;orthogonalLoop=1;jettySize=auto;html=1;exitX=0;exitY=0.5;exitDx=0;exitDy=0;entryX=0;entryY=0.5;entryDx=0;entryDy=0;endArrow=none;endFill=0;" edge="1" parent="1" source="f2aHSnmQVp273GiSmWft-5" target="veKBCSQcN8gknb0WO686-3">
          <mxGeometry relative="1" as="geometry" />
        </mxCell>
        <mxCell id="f2aHSnmQVp273GiSmWft-5" value="Пункт выдачи" style="whiteSpace=wrap;html=1;align=center;" parent="1" vertex="1">
          <mxGeometry x="-320" y="230" width="100" height="40" as="geometry" />
        </mxCell>
        <mxCell id="f2aHSnmQVp273GiSmWft-47" style="edgeStyle=orthogonalEdgeStyle;shape=connector;rounded=0;orthogonalLoop=1;jettySize=auto;html=1;exitX=0;exitY=0.5;exitDx=0;exitDy=0;entryX=0;entryY=0.5;entryDx=0;entryDy=0;strokeColor=default;align=center;verticalAlign=middle;fontFamily=Helvetica;fontSize=11;fontColor=default;labelBackgroundColor=default;endArrow=none;endFill=0;" parent="1" source="veKBCSQcN8gknb0WO686-5" target="f2aHSnmQVp273GiSmWft-45" edge="1">
          <mxGeometry relative="1" as="geometry">
            <mxPoint x="-180" y="420" as="sourcePoint" />
          </mxGeometry>
        </mxCell>
        <mxCell id="f2aHSnmQVp273GiSmWft-14" style="edgeStyle=orthogonalEdgeStyle;shape=connector;rounded=0;orthogonalLoop=1;jettySize=auto;html=1;exitX=0;exitY=0.5;exitDx=0;exitDy=0;strokeColor=default;align=center;verticalAlign=middle;fontFamily=Helvetica;fontSize=11;fontColor=default;labelBackgroundColor=default;endArrow=none;endFill=0;" parent="1" source="f2aHSnmQVp273GiSmWft-7" edge="1">
          <mxGeometry relative="1" as="geometry">
            <mxPoint x="120" y="470" as="targetPoint" />
          </mxGeometry>
        </mxCell>
        <mxCell id="f2aHSnmQVp273GiSmWft-7" value="Идентификатор" style="ellipse;whiteSpace=wrap;html=1;align=center;" parent="1" vertex="1">
          <mxGeometry x="140" y="450" width="100" height="40" as="geometry" />
        </mxCell>
        <mxCell id="f2aHSnmQVp273GiSmWft-13" style="edgeStyle=orthogonalEdgeStyle;shape=connector;rounded=0;orthogonalLoop=1;jettySize=auto;html=1;exitX=0;exitY=0.5;exitDx=0;exitDy=0;strokeColor=default;align=center;verticalAlign=middle;fontFamily=Helvetica;fontSize=11;fontColor=default;labelBackgroundColor=default;endArrow=none;endFill=0;" parent="1" source="f2aHSnmQVp273GiSmWft-8" edge="1">
          <mxGeometry relative="1" as="geometry">
            <mxPoint x="120" y="520" as="targetPoint" />
          </mxGeometry>
        </mxCell>
        <mxCell id="f2aHSnmQVp273GiSmWft-8" value="Имя" style="ellipse;whiteSpace=wrap;html=1;align=center;" parent="1" vertex="1">
          <mxGeometry x="140" y="500" width="100" height="40" as="geometry" />
        </mxCell>
        <mxCell id="f2aHSnmQVp273GiSmWft-12" style="edgeStyle=orthogonalEdgeStyle;rounded=0;orthogonalLoop=1;jettySize=auto;html=1;exitX=0;exitY=0.5;exitDx=0;exitDy=0;endArrow=none;endFill=0;" parent="1" source="f2aHSnmQVp273GiSmWft-9" edge="1">
          <mxGeometry relative="1" as="geometry">
            <mxPoint x="120" y="570" as="targetPoint" />
          </mxGeometry>
        </mxCell>
        <mxCell id="f2aHSnmQVp273GiSmWft-9" value="Почта" style="ellipse;whiteSpace=wrap;html=1;align=center;" parent="1" vertex="1">
          <mxGeometry x="140" y="550" width="100" height="40" as="geometry" />
        </mxCell>
        <mxCell id="f2aHSnmQVp273GiSmWft-10" value="Пароль" style="ellipse;whiteSpace=wrap;html=1;align=center;" parent="1" vertex="1">
          <mxGeometry x="140" y="600" width="100" height="40" as="geometry" />
        </mxCell>
        <mxCell id="f2aHSnmQVp273GiSmWft-15" style="edgeStyle=orthogonalEdgeStyle;shape=connector;rounded=0;orthogonalLoop=1;jettySize=auto;html=1;exitX=0;exitY=0.5;exitDx=0;exitDy=0;strokeColor=default;align=center;verticalAlign=middle;fontFamily=Helvetica;fontSize=11;fontColor=default;labelBackgroundColor=default;endArrow=none;endFill=0;" parent="1" source="f2aHSnmQVp273GiSmWft-16" edge="1">
          <mxGeometry relative="1" as="geometry">
            <mxPoint x="-200" y="470" as="targetPoint" />
          </mxGeometry>
        </mxCell>
        <mxCell id="f2aHSnmQVp273GiSmWft-16" value="Идентификатор" style="ellipse;whiteSpace=wrap;html=1;align=center;" parent="1" vertex="1">
          <mxGeometry x="-180" y="450" width="100" height="40" as="geometry" />
        </mxCell>
        <mxCell id="f2aHSnmQVp273GiSmWft-17" style="edgeStyle=orthogonalEdgeStyle;shape=connector;rounded=0;orthogonalLoop=1;jettySize=auto;html=1;exitX=0;exitY=0.5;exitDx=0;exitDy=0;strokeColor=default;align=center;verticalAlign=middle;fontFamily=Helvetica;fontSize=11;fontColor=default;labelBackgroundColor=default;endArrow=none;endFill=0;" parent="1" source="f2aHSnmQVp273GiSmWft-18" edge="1">
          <mxGeometry relative="1" as="geometry">
            <mxPoint x="-200" y="520" as="targetPoint" />
          </mxGeometry>
        </mxCell>
        <mxCell id="f2aHSnmQVp273GiSmWft-18" value="Имя" style="ellipse;whiteSpace=wrap;html=1;align=center;" parent="1" vertex="1">
          <mxGeometry x="-180" y="500" width="100" height="40" as="geometry" />
        </mxCell>
        <mxCell id="f2aHSnmQVp273GiSmWft-19" style="edgeStyle=orthogonalEdgeStyle;rounded=0;orthogonalLoop=1;jettySize=auto;html=1;exitX=0;exitY=0.5;exitDx=0;exitDy=0;endArrow=none;endFill=0;" parent="1" source="f2aHSnmQVp273GiSmWft-20" edge="1">
          <mxGeometry relative="1" as="geometry">
            <mxPoint x="-200" y="570" as="targetPoint" />
          </mxGeometry>
        </mxCell>
        <mxCell id="f2aHSnmQVp273GiSmWft-20" value="Почта" style="ellipse;whiteSpace=wrap;html=1;align=center;" parent="1" vertex="1">
          <mxGeometry x="-180" y="550" width="100" height="40" as="geometry" />
        </mxCell>
        <mxCell id="f2aHSnmQVp273GiSmWft-46" style="edgeStyle=orthogonalEdgeStyle;shape=connector;rounded=0;orthogonalLoop=1;jettySize=auto;html=1;exitX=0;exitY=0.5;exitDx=0;exitDy=0;strokeColor=default;align=center;verticalAlign=middle;fontFamily=Helvetica;fontSize=11;fontColor=default;labelBackgroundColor=default;endArrow=none;endFill=0;" parent="1" source="f2aHSnmQVp273GiSmWft-21" edge="1">
          <mxGeometry relative="1" as="geometry">
            <mxPoint x="-200" y="619.8571428571429" as="targetPoint" />
          </mxGeometry>
        </mxCell>
        <mxCell id="f2aHSnmQVp273GiSmWft-21" value="Пароль" style="ellipse;whiteSpace=wrap;html=1;align=center;" parent="1" vertex="1">
          <mxGeometry x="-180" y="600" width="100" height="40" as="geometry" />
        </mxCell>
        <mxCell id="f2aHSnmQVp273GiSmWft-23" style="edgeStyle=orthogonalEdgeStyle;shape=connector;rounded=0;orthogonalLoop=1;jettySize=auto;html=1;exitX=0;exitY=0.5;exitDx=0;exitDy=0;strokeColor=default;align=center;verticalAlign=middle;fontFamily=Helvetica;fontSize=11;fontColor=default;labelBackgroundColor=default;endArrow=none;endFill=0;" parent="1" source="f2aHSnmQVp273GiSmWft-24" edge="1">
          <mxGeometry relative="1" as="geometry">
            <mxPoint x="-40" y="470" as="targetPoint" />
          </mxGeometry>
        </mxCell>
        <mxCell id="f2aHSnmQVp273GiSmWft-24" value="Идентификатор" style="ellipse;whiteSpace=wrap;html=1;align=center;" parent="1" vertex="1">
          <mxGeometry x="-20" y="450" width="100" height="40" as="geometry" />
        </mxCell>
        <mxCell id="f2aHSnmQVp273GiSmWft-25" style="edgeStyle=orthogonalEdgeStyle;shape=connector;rounded=0;orthogonalLoop=1;jettySize=auto;html=1;exitX=0;exitY=0.5;exitDx=0;exitDy=0;strokeColor=default;align=center;verticalAlign=middle;fontFamily=Helvetica;fontSize=11;fontColor=default;labelBackgroundColor=default;endArrow=none;endFill=0;" parent="1" source="f2aHSnmQVp273GiSmWft-26" edge="1">
          <mxGeometry relative="1" as="geometry">
            <mxPoint x="-40" y="520" as="targetPoint" />
          </mxGeometry>
        </mxCell>
        <mxCell id="f2aHSnmQVp273GiSmWft-26" value="Имя" style="ellipse;whiteSpace=wrap;html=1;align=center;" parent="1" vertex="1">
          <mxGeometry x="-20" y="500" width="100" height="40" as="geometry" />
        </mxCell>
        <mxCell id="f2aHSnmQVp273GiSmWft-27" style="edgeStyle=orthogonalEdgeStyle;rounded=0;orthogonalLoop=1;jettySize=auto;html=1;exitX=0;exitY=0.5;exitDx=0;exitDy=0;endArrow=none;endFill=0;" parent="1" source="f2aHSnmQVp273GiSmWft-28" edge="1">
          <mxGeometry relative="1" as="geometry">
            <mxPoint x="-40" y="570" as="targetPoint" />
          </mxGeometry>
        </mxCell>
        <mxCell id="f2aHSnmQVp273GiSmWft-28" value="Почта" style="ellipse;whiteSpace=wrap;html=1;align=center;" parent="1" vertex="1">
          <mxGeometry x="-20" y="550" width="100" height="40" as="geometry" />
        </mxCell>
        <mxCell id="f2aHSnmQVp273GiSmWft-29" value="Пароль" style="ellipse;whiteSpace=wrap;html=1;align=center;" parent="1" vertex="1">
          <mxGeometry x="-20" y="600" width="100" height="40" as="geometry" />
        </mxCell>
        <mxCell id="f2aHSnmQVp273GiSmWft-33" value="" style="edgeStyle=orthogonalEdgeStyle;shape=connector;rounded=0;orthogonalLoop=1;jettySize=auto;html=1;exitX=0.5;exitY=0;exitDx=0;exitDy=0;entryX=0.5;entryY=1;entryDx=0;entryDy=0;strokeColor=default;align=center;verticalAlign=middle;fontFamily=Helvetica;fontSize=11;fontColor=default;labelBackgroundColor=default;endArrow=none;endFill=0;" parent="1" source="f2aHSnmQVp273GiSmWft-2" target="f2aHSnmQVp273GiSmWft-32" edge="1">
          <mxGeometry relative="1" as="geometry">
            <mxPoint x="190" y="400" as="sourcePoint" />
            <mxPoint x="190" y="250" as="targetPoint" />
          </mxGeometry>
        </mxCell>
        <mxCell id="veKBCSQcN8gknb0WO686-53" style="edgeStyle=orthogonalEdgeStyle;shape=connector;rounded=0;orthogonalLoop=1;jettySize=auto;html=1;exitX=0.5;exitY=0;exitDx=0;exitDy=0;entryX=1;entryY=0.75;entryDx=0;entryDy=0;strokeColor=default;align=center;verticalAlign=middle;fontFamily=Helvetica;fontSize=11;fontColor=default;labelBackgroundColor=default;endArrow=ERmany;endFill=0;startArrow=none;startFill=0;" edge="1" parent="1" source="f2aHSnmQVp273GiSmWft-32" target="veKBCSQcN8gknb0WO686-6">
          <mxGeometry relative="1" as="geometry" />
        </mxCell>
        <mxCell id="f2aHSnmQVp273GiSmWft-32" value="Арендует" style="shape=rhombus;perimeter=rhombusPerimeter;whiteSpace=wrap;html=1;align=center;fontFamily=Helvetica;fontSize=11;fontColor=default;labelBackgroundColor=default;" parent="1" vertex="1">
          <mxGeometry x="130" y="300" width="120" height="60" as="geometry" />
        </mxCell>
        <mxCell id="veKBCSQcN8gknb0WO686-7" style="edgeStyle=orthogonalEdgeStyle;rounded=0;orthogonalLoop=1;jettySize=auto;html=1;exitX=0.5;exitY=1;exitDx=0;exitDy=0;entryX=0.5;entryY=0;entryDx=0;entryDy=0;endArrow=none;endFill=0;" edge="1" parent="1" source="f2aHSnmQVp273GiSmWft-35" target="f2aHSnmQVp273GiSmWft-3">
          <mxGeometry relative="1" as="geometry" />
        </mxCell>
        <mxCell id="veKBCSQcN8gknb0WO686-54" style="edgeStyle=orthogonalEdgeStyle;shape=connector;rounded=0;orthogonalLoop=1;jettySize=auto;html=1;exitX=0.5;exitY=0;exitDx=0;exitDy=0;entryX=0.5;entryY=1;entryDx=0;entryDy=0;strokeColor=default;align=center;verticalAlign=middle;fontFamily=Helvetica;fontSize=11;fontColor=default;labelBackgroundColor=default;endArrow=ERmany;endFill=0;" edge="1" parent="1" source="f2aHSnmQVp273GiSmWft-35" target="veKBCSQcN8gknb0WO686-6">
          <mxGeometry relative="1" as="geometry" />
        </mxCell>
        <mxCell id="f2aHSnmQVp273GiSmWft-35" value="Предоставляет" style="shape=rhombus;perimeter=rhombusPerimeter;whiteSpace=wrap;html=1;align=center;fontFamily=Helvetica;fontSize=11;fontColor=default;labelBackgroundColor=default;" parent="1" vertex="1">
          <mxGeometry x="-30" y="300" width="120" height="60" as="geometry" />
        </mxCell>
        <mxCell id="f2aHSnmQVp273GiSmWft-38" value="" style="edgeStyle=orthogonalEdgeStyle;shape=connector;rounded=0;orthogonalLoop=1;jettySize=auto;html=1;exitX=0;exitY=0.25;exitDx=0;exitDy=0;entryX=1;entryY=0.5;entryDx=0;entryDy=0;strokeColor=default;align=center;verticalAlign=middle;fontFamily=Helvetica;fontSize=11;fontColor=default;labelBackgroundColor=default;endArrow=none;endFill=0;startArrow=ERmany;startFill=0;" parent="1" source="veKBCSQcN8gknb0WO686-6" target="f2aHSnmQVp273GiSmWft-37" edge="1">
          <mxGeometry relative="1" as="geometry">
            <mxPoint x="-20" y="220" as="sourcePoint" />
            <mxPoint x="30" y="100" as="targetPoint" />
            <Array as="points">
              <mxPoint x="-50" y="220" />
              <mxPoint x="-50" y="150" />
            </Array>
          </mxGeometry>
        </mxCell>
        <mxCell id="f2aHSnmQVp273GiSmWft-37" value="Предсатвялет" style="shape=rhombus;perimeter=rhombusPerimeter;whiteSpace=wrap;html=1;align=center;fontFamily=Helvetica;fontSize=11;fontColor=default;labelBackgroundColor=default;" parent="1" vertex="1">
          <mxGeometry x="-190" y="120" width="120" height="60" as="geometry" />
        </mxCell>
        <mxCell id="f2aHSnmQVp273GiSmWft-41" value="" style="edgeStyle=orthogonalEdgeStyle;shape=connector;rounded=0;orthogonalLoop=1;jettySize=auto;html=1;exitX=1;exitY=0.25;exitDx=0;exitDy=0;entryX=0;entryY=0.5;entryDx=0;entryDy=0;strokeColor=default;align=center;verticalAlign=middle;fontFamily=Helvetica;fontSize=11;fontColor=default;labelBackgroundColor=default;endArrow=none;endFill=0;" parent="1" source="f2aHSnmQVp273GiSmWft-5" target="f2aHSnmQVp273GiSmWft-39" edge="1">
          <mxGeometry relative="1" as="geometry">
            <mxPoint x="-220" y="240" as="sourcePoint" />
            <mxPoint x="-40" y="240" as="targetPoint" />
          </mxGeometry>
        </mxCell>
        <mxCell id="f2aHSnmQVp273GiSmWft-39" value="Содержит" style="shape=rhombus;perimeter=rhombusPerimeter;whiteSpace=wrap;html=1;align=center;fontFamily=Helvetica;fontSize=11;fontColor=default;labelBackgroundColor=default;" parent="1" vertex="1">
          <mxGeometry x="-190" y="210" width="120" height="60" as="geometry" />
        </mxCell>
        <mxCell id="veKBCSQcN8gknb0WO686-8" style="edgeStyle=orthogonalEdgeStyle;rounded=0;orthogonalLoop=1;jettySize=auto;html=1;exitX=0.5;exitY=1;exitDx=0;exitDy=0;entryX=0.5;entryY=0;entryDx=0;entryDy=0;endArrow=ERmany;endFill=0;" edge="1" parent="1" source="f2aHSnmQVp273GiSmWft-44" target="veKBCSQcN8gknb0WO686-5">
          <mxGeometry relative="1" as="geometry" />
        </mxCell>
        <mxCell id="f2aHSnmQVp273GiSmWft-44" value="Работает" style="shape=rhombus;perimeter=rhombusPerimeter;whiteSpace=wrap;html=1;align=center;fontFamily=Helvetica;fontSize=11;fontColor=default;labelBackgroundColor=default;" parent="1" vertex="1">
          <mxGeometry x="-190" y="300" width="120" height="60" as="geometry" />
        </mxCell>
        <mxCell id="f2aHSnmQVp273GiSmWft-45" value="Идентификатор ПВЗ" style="ellipse;whiteSpace=wrap;html=1;align=center;" parent="1" vertex="1">
          <mxGeometry x="-180" y="650" width="100" height="40" as="geometry" />
        </mxCell>
        <mxCell id="veKBCSQcN8gknb0WO686-17" style="edgeStyle=orthogonalEdgeStyle;shape=connector;rounded=0;orthogonalLoop=1;jettySize=auto;html=1;exitX=0;exitY=0.5;exitDx=0;exitDy=0;strokeColor=default;align=center;verticalAlign=middle;fontFamily=Helvetica;fontSize=11;fontColor=default;labelBackgroundColor=default;endArrow=none;endFill=0;" edge="1" parent="1" source="veKBCSQcN8gknb0WO686-1">
          <mxGeometry relative="1" as="geometry">
            <mxPoint x="-340" y="300.20000000000005" as="targetPoint" />
          </mxGeometry>
        </mxCell>
        <mxCell id="veKBCSQcN8gknb0WO686-1" value="Идентификатор" style="ellipse;whiteSpace=wrap;html=1;align=center;" vertex="1" parent="1">
          <mxGeometry x="-320" y="280" width="100" height="40" as="geometry" />
        </mxCell>
        <mxCell id="veKBCSQcN8gknb0WO686-16" style="edgeStyle=orthogonalEdgeStyle;shape=connector;rounded=0;orthogonalLoop=1;jettySize=auto;html=1;exitX=0;exitY=0.5;exitDx=0;exitDy=0;strokeColor=default;align=center;verticalAlign=middle;fontFamily=Helvetica;fontSize=11;fontColor=default;labelBackgroundColor=default;endArrow=none;endFill=0;" edge="1" parent="1" source="veKBCSQcN8gknb0WO686-2">
          <mxGeometry relative="1" as="geometry">
            <mxPoint x="-340" y="350.20000000000005" as="targetPoint" />
          </mxGeometry>
        </mxCell>
        <mxCell id="veKBCSQcN8gknb0WO686-2" value="Адрес" style="ellipse;whiteSpace=wrap;html=1;align=center;" vertex="1" parent="1">
          <mxGeometry x="-320" y="330" width="100" height="40" as="geometry" />
        </mxCell>
        <mxCell id="veKBCSQcN8gknb0WO686-3" value="Вместительность" style="ellipse;whiteSpace=wrap;html=1;align=center;" vertex="1" parent="1">
          <mxGeometry x="-320" y="430" width="100" height="40" as="geometry" />
        </mxCell>
        <mxCell id="veKBCSQcN8gknb0WO686-15" style="edgeStyle=orthogonalEdgeStyle;shape=connector;rounded=0;orthogonalLoop=1;jettySize=auto;html=1;exitX=0;exitY=0.5;exitDx=0;exitDy=0;strokeColor=default;align=center;verticalAlign=middle;fontFamily=Helvetica;fontSize=11;fontColor=default;labelBackgroundColor=default;endArrow=none;endFill=0;" edge="1" parent="1" source="veKBCSQcN8gknb0WO686-4">
          <mxGeometry relative="1" as="geometry">
            <mxPoint x="-340" y="400" as="targetPoint" />
          </mxGeometry>
        </mxCell>
        <mxCell id="veKBCSQcN8gknb0WO686-4" value="Часы работы" style="ellipse;whiteSpace=wrap;html=1;align=center;" vertex="1" parent="1">
          <mxGeometry x="-320" y="380" width="100" height="40" as="geometry" />
        </mxCell>
        <mxCell id="veKBCSQcN8gknb0WO686-5" value="Складовщик" style="shape=ext;margin=3;double=1;whiteSpace=wrap;html=1;align=center;" vertex="1" parent="1">
          <mxGeometry x="-180" y="400" width="100" height="40" as="geometry" />
        </mxCell>
        <mxCell id="veKBCSQcN8gknb0WO686-39" style="edgeStyle=orthogonalEdgeStyle;shape=connector;rounded=0;orthogonalLoop=1;jettySize=auto;html=1;exitX=0.5;exitY=0;exitDx=0;exitDy=0;entryX=0;entryY=0.5;entryDx=0;entryDy=0;strokeColor=default;align=center;verticalAlign=middle;fontFamily=Helvetica;fontSize=11;fontColor=default;labelBackgroundColor=default;endArrow=none;endFill=0;" edge="1" parent="1" source="veKBCSQcN8gknb0WO686-6" target="veKBCSQcN8gknb0WO686-38">
          <mxGeometry relative="1" as="geometry" />
        </mxCell>
        <mxCell id="veKBCSQcN8gknb0WO686-59" style="edgeStyle=orthogonalEdgeStyle;shape=connector;rounded=0;orthogonalLoop=1;jettySize=auto;html=1;exitX=1;exitY=0.25;exitDx=0;exitDy=0;entryX=0;entryY=0.5;entryDx=0;entryDy=0;strokeColor=default;align=center;verticalAlign=middle;fontFamily=Helvetica;fontSize=11;fontColor=default;labelBackgroundColor=default;endArrow=none;endFill=0;startArrow=none;startFill=0;" edge="1" parent="1" source="veKBCSQcN8gknb0WO686-6" target="veKBCSQcN8gknb0WO686-60">
          <mxGeometry relative="1" as="geometry" />
        </mxCell>
        <mxCell id="veKBCSQcN8gknb0WO686-6" value="Экземпляр товара" style="shape=ext;margin=3;double=1;whiteSpace=wrap;html=1;align=center;" vertex="1" parent="1">
          <mxGeometry x="-20" y="210" width="100" height="40" as="geometry" />
        </mxCell>
        <mxCell id="veKBCSQcN8gknb0WO686-22" style="edgeStyle=orthogonalEdgeStyle;shape=connector;rounded=0;orthogonalLoop=1;jettySize=auto;html=1;exitX=0;exitY=0.5;exitDx=0;exitDy=0;strokeColor=default;align=center;verticalAlign=middle;fontFamily=Helvetica;fontSize=11;fontColor=default;labelBackgroundColor=default;endArrow=none;endFill=0;" edge="1" parent="1" source="veKBCSQcN8gknb0WO686-9">
          <mxGeometry relative="1" as="geometry">
            <mxPoint x="-340" y="100.13793103448279" as="targetPoint" />
          </mxGeometry>
        </mxCell>
        <mxCell id="veKBCSQcN8gknb0WO686-9" value="Идентификатор" style="ellipse;whiteSpace=wrap;html=1;align=center;" vertex="1" parent="1">
          <mxGeometry x="-320" y="80" width="100" height="40" as="geometry" />
        </mxCell>
        <mxCell id="veKBCSQcN8gknb0WO686-21" style="edgeStyle=orthogonalEdgeStyle;shape=connector;rounded=0;orthogonalLoop=1;jettySize=auto;html=1;exitX=0;exitY=0.5;exitDx=0;exitDy=0;strokeColor=default;align=center;verticalAlign=middle;fontFamily=Helvetica;fontSize=11;fontColor=default;labelBackgroundColor=default;endArrow=none;endFill=0;" edge="1" parent="1" source="veKBCSQcN8gknb0WO686-10">
          <mxGeometry relative="1" as="geometry">
            <mxPoint x="-340" y="49.79310344827593" as="targetPoint" />
          </mxGeometry>
        </mxCell>
        <mxCell id="veKBCSQcN8gknb0WO686-10" value="Название" style="ellipse;whiteSpace=wrap;html=1;align=center;" vertex="1" parent="1">
          <mxGeometry x="-320" y="30" width="100" height="40" as="geometry" />
        </mxCell>
        <mxCell id="veKBCSQcN8gknb0WO686-20" style="edgeStyle=orthogonalEdgeStyle;shape=connector;rounded=0;orthogonalLoop=1;jettySize=auto;html=1;exitX=0;exitY=0.5;exitDx=0;exitDy=0;strokeColor=default;align=center;verticalAlign=middle;fontFamily=Helvetica;fontSize=11;fontColor=default;labelBackgroundColor=default;endArrow=none;endFill=0;" edge="1" parent="1" source="veKBCSQcN8gknb0WO686-11">
          <mxGeometry relative="1" as="geometry">
            <mxPoint x="-340" y="0.13793103448278998" as="targetPoint" />
          </mxGeometry>
        </mxCell>
        <mxCell id="veKBCSQcN8gknb0WO686-11" value="Категория" style="ellipse;whiteSpace=wrap;html=1;align=center;" vertex="1" parent="1">
          <mxGeometry x="-320" y="-20" width="100" height="40" as="geometry" />
        </mxCell>
        <mxCell id="veKBCSQcN8gknb0WO686-19" style="edgeStyle=orthogonalEdgeStyle;shape=connector;rounded=0;orthogonalLoop=1;jettySize=auto;html=1;exitX=0;exitY=0.5;exitDx=0;exitDy=0;strokeColor=default;align=center;verticalAlign=middle;fontFamily=Helvetica;fontSize=11;fontColor=default;labelBackgroundColor=default;endArrow=none;endFill=0;" edge="1" parent="1" source="veKBCSQcN8gknb0WO686-12">
          <mxGeometry relative="1" as="geometry">
            <mxPoint x="-340" y="-50.20689655172407" as="targetPoint" />
          </mxGeometry>
        </mxCell>
        <mxCell id="veKBCSQcN8gknb0WO686-12" value="Описание" style="ellipse;whiteSpace=wrap;html=1;align=center;" vertex="1" parent="1">
          <mxGeometry x="-320" y="-70" width="100" height="40" as="geometry" />
        </mxCell>
        <mxCell id="veKBCSQcN8gknb0WO686-24" style="edgeStyle=orthogonalEdgeStyle;shape=connector;rounded=0;orthogonalLoop=1;jettySize=auto;html=1;exitX=0;exitY=0.5;exitDx=0;exitDy=0;strokeColor=default;align=center;verticalAlign=middle;fontFamily=Helvetica;fontSize=11;fontColor=default;labelBackgroundColor=default;endArrow=none;endFill=0;" edge="1" parent="1" source="veKBCSQcN8gknb0WO686-13">
          <mxGeometry relative="1" as="geometry">
            <mxPoint x="-340" y="-99.86206896551721" as="targetPoint" />
          </mxGeometry>
        </mxCell>
        <mxCell id="veKBCSQcN8gknb0WO686-13" value="Фото" style="ellipse;whiteSpace=wrap;html=1;align=center;" vertex="1" parent="1">
          <mxGeometry x="-320" y="-120" width="100" height="40" as="geometry" />
        </mxCell>
        <mxCell id="veKBCSQcN8gknb0WO686-23" value="Характеристики" style="ellipse;whiteSpace=wrap;html=1;align=center;" vertex="1" parent="1">
          <mxGeometry x="-320" y="-170" width="100" height="40" as="geometry" />
        </mxCell>
        <mxCell id="veKBCSQcN8gknb0WO686-47" style="edgeStyle=orthogonalEdgeStyle;shape=connector;rounded=0;orthogonalLoop=1;jettySize=auto;html=1;exitX=0;exitY=0.5;exitDx=0;exitDy=0;strokeColor=default;align=center;verticalAlign=middle;fontFamily=Helvetica;fontSize=11;fontColor=default;labelBackgroundColor=default;endArrow=none;endFill=0;" edge="1" parent="1" source="veKBCSQcN8gknb0WO686-25">
          <mxGeometry relative="1" as="geometry">
            <mxPoint x="30" y="179.66666666666674" as="targetPoint" />
          </mxGeometry>
        </mxCell>
        <mxCell id="veKBCSQcN8gknb0WO686-25" value="Идентификатор" style="ellipse;whiteSpace=wrap;html=1;align=center;" vertex="1" parent="1">
          <mxGeometry x="50" y="160" width="100" height="40" as="geometry" />
        </mxCell>
        <mxCell id="veKBCSQcN8gknb0WO686-46" style="edgeStyle=orthogonalEdgeStyle;shape=connector;rounded=0;orthogonalLoop=1;jettySize=auto;html=1;exitX=0;exitY=0.5;exitDx=0;exitDy=0;strokeColor=default;align=center;verticalAlign=middle;fontFamily=Helvetica;fontSize=11;fontColor=default;labelBackgroundColor=default;endArrow=none;endFill=0;" edge="1" parent="1" source="veKBCSQcN8gknb0WO686-26">
          <mxGeometry relative="1" as="geometry">
            <mxPoint x="30" y="129.66666666666674" as="targetPoint" />
          </mxGeometry>
        </mxCell>
        <mxCell id="veKBCSQcN8gknb0WO686-26" value="Название" style="ellipse;whiteSpace=wrap;html=1;align=center;" vertex="1" parent="1">
          <mxGeometry x="50" y="110" width="100" height="40" as="geometry" />
        </mxCell>
        <mxCell id="veKBCSQcN8gknb0WO686-45" style="edgeStyle=orthogonalEdgeStyle;shape=connector;rounded=0;orthogonalLoop=1;jettySize=auto;html=1;exitX=0;exitY=0.5;exitDx=0;exitDy=0;strokeColor=default;align=center;verticalAlign=middle;fontFamily=Helvetica;fontSize=11;fontColor=default;labelBackgroundColor=default;endArrow=none;endFill=0;" edge="1" parent="1" source="veKBCSQcN8gknb0WO686-27">
          <mxGeometry relative="1" as="geometry">
            <mxPoint x="30" y="79.66666666666674" as="targetPoint" />
          </mxGeometry>
        </mxCell>
        <mxCell id="veKBCSQcN8gknb0WO686-27" value="Описание" style="ellipse;whiteSpace=wrap;html=1;align=center;" vertex="1" parent="1">
          <mxGeometry x="50" y="60" width="100" height="40" as="geometry" />
        </mxCell>
        <mxCell id="veKBCSQcN8gknb0WO686-44" style="edgeStyle=orthogonalEdgeStyle;shape=connector;rounded=0;orthogonalLoop=1;jettySize=auto;html=1;exitX=0;exitY=0.5;exitDx=0;exitDy=0;strokeColor=default;align=center;verticalAlign=middle;fontFamily=Helvetica;fontSize=11;fontColor=default;labelBackgroundColor=default;endArrow=none;endFill=0;" edge="1" parent="1" source="veKBCSQcN8gknb0WO686-28">
          <mxGeometry relative="1" as="geometry">
            <mxPoint x="30" y="29.666666666666742" as="targetPoint" />
          </mxGeometry>
        </mxCell>
        <mxCell id="veKBCSQcN8gknb0WO686-28" value="Цена" style="ellipse;whiteSpace=wrap;html=1;align=center;" vertex="1" parent="1">
          <mxGeometry x="50" y="10" width="100" height="40" as="geometry" />
        </mxCell>
        <mxCell id="veKBCSQcN8gknb0WO686-43" style="edgeStyle=orthogonalEdgeStyle;shape=connector;rounded=0;orthogonalLoop=1;jettySize=auto;html=1;exitX=0;exitY=0.5;exitDx=0;exitDy=0;strokeColor=default;align=center;verticalAlign=middle;fontFamily=Helvetica;fontSize=11;fontColor=default;labelBackgroundColor=default;endArrow=none;endFill=0;" edge="1" parent="1" source="veKBCSQcN8gknb0WO686-29">
          <mxGeometry relative="1" as="geometry">
            <mxPoint x="30" y="-20.333333333333258" as="targetPoint" />
          </mxGeometry>
        </mxCell>
        <mxCell id="veKBCSQcN8gknb0WO686-29" value="Фото" style="ellipse;whiteSpace=wrap;html=1;align=center;" vertex="1" parent="1">
          <mxGeometry x="50" y="-40" width="100" height="40" as="geometry" />
        </mxCell>
        <mxCell id="veKBCSQcN8gknb0WO686-42" style="edgeStyle=orthogonalEdgeStyle;shape=connector;rounded=0;orthogonalLoop=1;jettySize=auto;html=1;exitX=0;exitY=0.5;exitDx=0;exitDy=0;strokeColor=default;align=center;verticalAlign=middle;fontFamily=Helvetica;fontSize=11;fontColor=default;labelBackgroundColor=default;endArrow=none;endFill=0;" edge="1" parent="1" source="veKBCSQcN8gknb0WO686-35">
          <mxGeometry relative="1" as="geometry">
            <mxPoint x="30" y="-70.33333333333326" as="targetPoint" />
          </mxGeometry>
        </mxCell>
        <mxCell id="veKBCSQcN8gknb0WO686-35" value="Идентификатор ПВЗ" style="ellipse;whiteSpace=wrap;html=1;align=center;" vertex="1" parent="1">
          <mxGeometry x="50" y="-90" width="100" height="40" as="geometry" />
        </mxCell>
        <mxCell id="veKBCSQcN8gknb0WO686-41" style="edgeStyle=orthogonalEdgeStyle;shape=connector;rounded=0;orthogonalLoop=1;jettySize=auto;html=1;exitX=0;exitY=0.5;exitDx=0;exitDy=0;strokeColor=default;align=center;verticalAlign=middle;fontFamily=Helvetica;fontSize=11;fontColor=default;labelBackgroundColor=default;endArrow=none;endFill=0;" edge="1" parent="1" source="veKBCSQcN8gknb0WO686-36">
          <mxGeometry relative="1" as="geometry">
            <mxPoint x="30" y="-120.33333333333326" as="targetPoint" />
          </mxGeometry>
        </mxCell>
        <mxCell id="veKBCSQcN8gknb0WO686-36" value="Идентификатор Арендодателя" style="ellipse;whiteSpace=wrap;html=1;align=center;" vertex="1" parent="1">
          <mxGeometry x="50" y="-140" width="100" height="40" as="geometry" />
        </mxCell>
        <mxCell id="veKBCSQcN8gknb0WO686-40" style="edgeStyle=orthogonalEdgeStyle;shape=connector;rounded=0;orthogonalLoop=1;jettySize=auto;html=1;exitX=0;exitY=0.5;exitDx=0;exitDy=0;strokeColor=default;align=center;verticalAlign=middle;fontFamily=Helvetica;fontSize=11;fontColor=default;labelBackgroundColor=default;endArrow=none;endFill=0;" edge="1" parent="1" source="veKBCSQcN8gknb0WO686-37">
          <mxGeometry relative="1" as="geometry">
            <mxPoint x="30" y="-170.33333333333326" as="targetPoint" />
          </mxGeometry>
        </mxCell>
        <mxCell id="veKBCSQcN8gknb0WO686-37" value="Идентификатор Пользоателя" style="ellipse;whiteSpace=wrap;html=1;align=center;" vertex="1" parent="1">
          <mxGeometry x="50" y="-190" width="100" height="40" as="geometry" />
        </mxCell>
        <mxCell id="veKBCSQcN8gknb0WO686-38" value="Состояние" style="ellipse;whiteSpace=wrap;html=1;align=center;" vertex="1" parent="1">
          <mxGeometry x="50" y="-240" width="100" height="40" as="geometry" />
        </mxCell>
        <mxCell id="veKBCSQcN8gknb0WO686-55" style="edgeStyle=orthogonalEdgeStyle;shape=connector;rounded=0;orthogonalLoop=1;jettySize=auto;html=1;exitX=0;exitY=0.5;exitDx=0;exitDy=0;entryX=0;entryY=0.5;entryDx=0;entryDy=0;strokeColor=default;align=center;verticalAlign=middle;fontFamily=Helvetica;fontSize=11;fontColor=default;labelBackgroundColor=default;endArrow=none;endFill=0;" edge="1" parent="1" source="veKBCSQcN8gknb0WO686-48" target="veKBCSQcN8gknb0WO686-52">
          <mxGeometry relative="1" as="geometry" />
        </mxCell>
        <mxCell id="veKBCSQcN8gknb0WO686-48" value="Отзыв" style="shape=ext;margin=3;double=1;whiteSpace=wrap;html=1;align=center;fontFamily=Helvetica;fontSize=11;fontColor=default;labelBackgroundColor=default;" vertex="1" parent="1">
          <mxGeometry x="340" y="190" width="100" height="40" as="geometry" />
        </mxCell>
        <mxCell id="veKBCSQcN8gknb0WO686-56" style="edgeStyle=orthogonalEdgeStyle;shape=connector;rounded=0;orthogonalLoop=1;jettySize=auto;html=1;exitX=0;exitY=0.5;exitDx=0;exitDy=0;strokeColor=default;align=center;verticalAlign=middle;fontFamily=Helvetica;fontSize=11;fontColor=default;labelBackgroundColor=default;endArrow=none;endFill=0;" edge="1" parent="1" source="veKBCSQcN8gknb0WO686-49">
          <mxGeometry relative="1" as="geometry">
            <mxPoint x="320" y="160" as="targetPoint" />
          </mxGeometry>
        </mxCell>
        <mxCell id="veKBCSQcN8gknb0WO686-49" value="Идентификатор" style="ellipse;whiteSpace=wrap;html=1;align=center;" vertex="1" parent="1">
          <mxGeometry x="340" y="140" width="100" height="40" as="geometry" />
        </mxCell>
        <mxCell id="veKBCSQcN8gknb0WO686-57" style="edgeStyle=orthogonalEdgeStyle;shape=connector;rounded=0;orthogonalLoop=1;jettySize=auto;html=1;exitX=0;exitY=0.5;exitDx=0;exitDy=0;strokeColor=default;align=center;verticalAlign=middle;fontFamily=Helvetica;fontSize=11;fontColor=default;labelBackgroundColor=default;endArrow=none;endFill=0;" edge="1" parent="1" source="veKBCSQcN8gknb0WO686-50">
          <mxGeometry relative="1" as="geometry">
            <mxPoint x="320" y="110" as="targetPoint" />
          </mxGeometry>
        </mxCell>
        <mxCell id="veKBCSQcN8gknb0WO686-50" value="Содержание" style="ellipse;whiteSpace=wrap;html=1;align=center;" vertex="1" parent="1">
          <mxGeometry x="340" y="90" width="100" height="40" as="geometry" />
        </mxCell>
        <mxCell id="veKBCSQcN8gknb0WO686-58" style="edgeStyle=orthogonalEdgeStyle;shape=connector;rounded=0;orthogonalLoop=1;jettySize=auto;html=1;exitX=0;exitY=0.5;exitDx=0;exitDy=0;strokeColor=default;align=center;verticalAlign=middle;fontFamily=Helvetica;fontSize=11;fontColor=default;labelBackgroundColor=default;endArrow=none;endFill=0;" edge="1" parent="1" source="veKBCSQcN8gknb0WO686-51">
          <mxGeometry relative="1" as="geometry">
            <mxPoint x="320" y="60" as="targetPoint" />
          </mxGeometry>
        </mxCell>
        <mxCell id="veKBCSQcN8gknb0WO686-51" value="Идентификатор экземпляра" style="ellipse;whiteSpace=wrap;html=1;align=center;" vertex="1" parent="1">
          <mxGeometry x="340" y="40" width="100" height="40" as="geometry" />
        </mxCell>
        <mxCell id="veKBCSQcN8gknb0WO686-52" value="Идентификатор пользователя" style="ellipse;whiteSpace=wrap;html=1;align=center;" vertex="1" parent="1">
          <mxGeometry x="340" y="-10" width="100" height="40" as="geometry" />
        </mxCell>
        <mxCell id="veKBCSQcN8gknb0WO686-62" style="edgeStyle=orthogonalEdgeStyle;shape=connector;rounded=0;orthogonalLoop=1;jettySize=auto;html=1;exitX=1;exitY=0.5;exitDx=0;exitDy=0;entryX=0;entryY=0.75;entryDx=0;entryDy=0;strokeColor=default;align=center;verticalAlign=middle;fontFamily=Helvetica;fontSize=11;fontColor=default;labelBackgroundColor=default;endArrow=ERmany;endFill=0;" edge="1" parent="1" source="veKBCSQcN8gknb0WO686-60" target="veKBCSQcN8gknb0WO686-48">
          <mxGeometry relative="1" as="geometry" />
        </mxCell>
        <mxCell id="veKBCSQcN8gknb0WO686-60" value="Описывает" style="shape=rhombus;perimeter=rhombusPerimeter;whiteSpace=wrap;html=1;align=center;fontFamily=Helvetica;fontSize=11;fontColor=default;labelBackgroundColor=default;" vertex="1" parent="1">
          <mxGeometry x="190" y="190" width="120" height="60" as="geometry" />
        </mxCell>
        <mxCell id="veKBCSQcN8gknb0WO686-65" style="edgeStyle=orthogonalEdgeStyle;shape=connector;rounded=0;orthogonalLoop=1;jettySize=auto;html=1;exitX=0.5;exitY=1;exitDx=0;exitDy=0;entryX=1;entryY=0.5;entryDx=0;entryDy=0;strokeColor=default;align=center;verticalAlign=middle;fontFamily=Helvetica;fontSize=11;fontColor=default;labelBackgroundColor=default;endArrow=none;endFill=0;startArrow=none;startFill=0;" edge="1" parent="1" source="veKBCSQcN8gknb0WO686-64" target="f2aHSnmQVp273GiSmWft-2">
          <mxGeometry relative="1" as="geometry" />
        </mxCell>
        <mxCell id="veKBCSQcN8gknb0WO686-64" value="Оставляет" style="shape=rhombus;perimeter=rhombusPerimeter;whiteSpace=wrap;html=1;align=center;fontFamily=Helvetica;fontSize=11;fontColor=default;labelBackgroundColor=default;" vertex="1" parent="1">
          <mxGeometry x="330" y="300" width="120" height="60" as="geometry" />
        </mxCell>
      </root>
    </mxGraphModel>
  </diagram>
</mxfile>
